<svg id="demo" xmlns="http://www.w3.org/2000/svg" width="148" height="136.803" viewBox="0 0 148 136.803">
  <path id="Path_1" data-name="Path 1" d="M53.53,33.061a3.534,3.534,0,0,1,3.53-3.53h72.373a3.533,3.533,0,0,1,3.53,3.53V86.017a3.534,3.534,0,0,1-3.53,3.53H108.119a10.858,10.858,0,0,1-.059,3.53h21.375a7.081,7.081,0,0,0,7.061-7.061V33.061A7.081,7.081,0,0,0,129.434,26H57.061A7.082,7.082,0,0,0,50,33.061V52.879a15.763,15.763,0,0,1,3.53-1.522Z" transform="translate(-6.009 -4.818)" fill="#fff"/>
  <path id="Path_2" data-name="Path 2" d="M53.158,76.139A12.356,12.356,0,1,0,40.8,63.782,12.356,12.356,0,0,0,53.158,76.139Zm0-21.182a8.826,8.826,0,1,1-8.826,8.825,8.826,8.826,0,0,1,8.826-8.825Zm84.7-39.717a2.648,2.648,0,1,0-2.648-2.648A2.648,2.648,0,0,0,137.86,15.239Zm0-3.972a1.324,1.324,0,1,1-1.324,1.324,1.324,1.324,0,0,1,1.324-1.324ZM61.074,7.3a2.648,2.648,0,1,0-2.648-2.648A2.648,2.648,0,0,0,61.074,7.3Zm0-3.972A1.324,1.324,0,1,1,59.75,4.648a1.324,1.324,0,0,1,1.324-1.324Zm60.9,16.328a1.765,1.765,0,1,0-1.765-1.765A1.765,1.765,0,0,0,121.973,19.652Zm0-2.648a.883.883,0,1,1-.883.883A.883.883,0,0,1,121.973,17ZM41.656,22.3a1.765,1.765,0,1,0-1.765-1.765A1.765,1.765,0,0,0,41.656,22.3Zm0-2.648a.883.883,0,1,1-.883.883.883.883,0,0,1,.883-.883ZM10.765,8.178A1.765,1.765,0,1,0,12.53,9.943a1.765,1.765,0,0,0-1.765-1.765Zm0,2.648a.883.883,0,1,1,.883-.883A.883.883,0,0,1,10.765,10.826Z" transform="translate(-1.195 -2)" fill="#fff"/>
  <ellipse id="Ellipse_1" data-name="Ellipse 1" cx="1.5" cy="2" rx="1.5" ry="2" transform="translate(0 119.902)" fill="#fff"/>
  <path id="Path_3" data-name="Path 3" d="M10.413,138H7.765a1.765,1.765,0,1,0,0,3.53h2.648a1.765,1.765,0,1,0,0-3.53Zm131.508,0h-2.648a1.765,1.765,0,1,0,0,3.53h2.648a1.765,1.765,0,0,0,0-3.53Z" transform="translate(-0.843 -17.966)" fill="#fff"/>
  <ellipse id="Ellipse_2" data-name="Ellipse 2" cx="1.5" cy="2" rx="1.5" ry="2" transform="translate(145 119.902)" fill="#fff"/>
  <path id="Path_4" data-name="Path 4" d="M134.788,131.674H71.528a7.514,7.514,0,0,0,1.146-3.991V113.341l4,6.782a6.1,6.1,0,0,0,4.337,1.831,6.8,6.8,0,0,0,5.316-2.736l12.412-16.3c2.7-3.139,2.282-7.444-.039-9.617a6.069,6.069,0,0,0-4.138-1.612A6.53,6.53,0,0,0,89.6,94.067l-7.12,9.167c-.822-1.358-7.032-12.694-10.858-15.72a21.786,21.786,0,0,0-6.194-3.237,15.983,15.983,0,0,1-3.285,2.675,20.991,20.991,0,0,1,7.289,3.33c1.285,1.017,12.685,19.172,12.685,19.172l3.15-4.056,7.054-9.079a2.975,2.975,0,0,1,2.246-1.1,2.539,2.539,0,0,1,1.725.659,3.571,3.571,0,0,1-.224,4.737L96,100.7l-.065.083L83.541,117.054a3.312,3.312,0,0,1-2.525,1.369,2.525,2.525,0,0,1-1.57-.559l-10.3-17.438v27.257a3.971,3.971,0,0,1-3.94,3.991H42.324a3.913,3.913,0,0,1-2.816-1.152,3.55,3.55,0,0,1-1.034-2.575l.084-28.524-9.784,23.36a4.122,4.122,0,0,1-3.417,2.622,2.045,2.045,0,0,1-.826-.171c-1.455-.645-2.02-3-1.21-5.035L26,113.453c2.728-6.866,5.8-14.6,6.223-15.658A20.064,20.064,0,0,1,45.3,86.781a15.984,15.984,0,0,1-3.149-2.665A23.619,23.619,0,0,0,29,96.355c-.013.028-5.492,13.818-8.958,22.539-1.533,3.856-.163,8.14,3.061,9.567a5.553,5.553,0,0,0,2.256.474,7.613,7.613,0,0,0,6.655-4.744l2.962-7.075-.032,10.821a7.008,7.008,0,0,0,1.026,3.737H17.011a1.78,1.78,0,1,0,0,3.53H134.788a1.78,1.78,0,1,0,0-3.53Z" transform="translate(-1.9 -11.64)" fill="#fff"/>
  <path id="Path_5" data-name="Path 5" d="M27.208,40.719l1.312-1.725-.829-.47-.842,1.933h-.028l-.856-1.92-.843.484,1.3,1.685v.027l-2.03-.262v.939l2.044-.262v.027l-1.312,1.684.787.5.9-1.947h.026l.829,1.933.87-.5-1.326-1.658v-.027l2.085.249v-.939l-2.085.275Z" transform="translate(-3.002 -6.288)" fill="#0bceb2"/>
  <path id="Path_6" data-name="Path 6" d="M87.62,16.864l-.756.97.454.286L87.835,17h.016l.477,1.113.5-.286-.763-.955v-.016l1.2.144v-.541l-1.2.159V16.6l.756-.994-.477-.27-.485,1.113h-.016l-.492-1.106-.486.279.748.97v.016l-1.169-.151V17l1.177-.151Z" transform="translate(-10.287 -3.566)" fill="#0bceb2"/>
  <path id="Path_7" data-name="Path 7" d="M158.36,34.337v-.921l-2.045.271V33.66l1.288-1.693-.813-.461-.826,1.9h-.028l-.839-1.883-.827.475,1.274,1.652v.027l-1.991-.258v.921l2-.257v.027l-1.287,1.652.772.488.881-1.911h.026l.813,1.9.853-.487-1.3-1.626v-.027Z" transform="translate(-18.165 -5.464)" fill="#0bceb2"/>
  <path id="Path_8" data-name="Path 8" d="M112.754,7.984l1.722-.275v.024L113.41,9.191l.679.4L114.8,7.92h.023l.752,1.613.723-.443-1.165-1.367V7.7l1.769.156-.024-.794-1.756.288V7.326l1.064-1.494-.713-.375-.662,1.657h-.024l-.774-1.6-.7.431,1.142,1.391v.024l-1.725-.169Z" transform="translate(-13.373 -2.406)" fill="#0bceb2"/>
  <path id="Path_9" data-name="Path 9" d="M109.918,147h-7.332a1.771,1.771,0,0,0,0,3.53h7.332a1.771,1.771,0,0,0,0-3.53Zm-52.956,0H49.629a1.771,1.771,0,0,0,0,3.53h7.332a1.771,1.771,0,0,0,0-3.53Zm40.464,0h-35.3a1.765,1.765,0,1,0,0,3.53H76.19V152.3H69.182a1.765,1.765,0,1,0,0,3.53H91.248a1.765,1.765,0,1,0,0-3.53h-7.89V150.53H97.426a1.765,1.765,0,1,0,0-3.53Z" transform="translate(-5.774 -19.023)" fill="#0bceb2"/>
</svg>
